<svg width="85" height="85" viewBox="0 0 85 85" fill="none" xmlns="http://www.w3.org/2000/svg">
<path d="M32.9638 34.4181C32.1761 34.4181 31.5376 35.0566 31.5376 35.8443V79.0107C31.5376 79.7983 32.1761 80.4369 32.9638 80.4369C33.7514 80.4369 34.39 79.7983 34.39 79.0107V35.8443C34.39 35.0565 33.7514 34.4181 32.9638 34.4181Z" fill="#FFBA08"/>
<path d="M39.4262 34.4181C38.6385 34.4181 38 35.0566 38 35.8443V79.0107C38 79.7983 38.6385 80.4369 39.4262 80.4369C40.2138 80.4369 40.8524 79.7983 40.8524 79.0107V35.8443C40.8524 35.0565 40.2138 34.4181 39.4262 34.4181Z" fill="#FFBA08"/>
<path d="M45.4262 34.4181C44.6385 34.4181 44 35.0566 44 35.8443V79.0107C44 79.7983 44.6385 80.4369 45.4262 80.4369C46.2138 80.4369 46.8524 79.7983 46.8524 79.0107V35.8443C46.8524 35.0565 46.2138 34.4181 45.4262 34.4181Z" fill="#FFBA08"/>
<path d="M52.0364 34.4181C51.2488 34.4181 50.6102 35.0566 50.6102 35.8443V79.0107C50.6102 79.7983 51.2488 80.4369 52.0364 80.4369C52.824 80.4369 53.4626 79.7983 53.4626 79.0107V35.8443C53.4626 35.0565 52.8239 34.4181 52.0364 34.4181Z" fill="#FFBA08"/>
<path d="M69.0258 82.1476H60.2799V31.4706C60.2799 30.6829 59.6413 30.0444 58.8537 30.0444H57.2278V17.0186C57.2278 16.2309 56.5893 15.5924 55.8016 15.5924H53.3543V5.60911C53.3543 4.82147 52.7158 4.18292 51.9281 4.18292H43.9263C43.9263 4.18292 43.2877 4.18292 42.5001 4.18292C41.0739 4.18292 41.0739 6.93964 41.0739 4.18292H33.0721C32.2844 4.18292 31.6459 4.82147 31.6459 5.60911V15.5924H29.1985C28.4109 15.5924 27.7724 16.2309 27.7724 17.0186V30.0444H26.1465C25.3589 30.0444 24.7203 30.6829 24.7203 31.4706V82.1476H15.9744C15.1868 82.1476 14.5482 82.7862 14.5482 83.5738C14.5482 84.3615 15.1868 85 15.9744 85H69.0258C69.8134 85 70.452 84.3615 70.452 83.5738C70.452 82.7862 69.8132 82.1476 69.0258 82.1476ZM34.4983 7.03529H50.5019V15.5924H49.1663V10.394C49.1663 9.60641 48.5277 8.96786 47.7401 8.96786C46.9524 8.96786 46.3139 9.60641 46.3139 10.394V15.5924H43.9263V10.394C43.9263 9.60641 43.2877 8.96786 42.5001 8.96786C41.7125 8.96786 41.0739 9.60641 41.0739 10.394V15.5924H38.6865V10.394C38.6865 9.60641 38.0479 8.96786 37.2603 8.96786C36.4727 8.96786 35.8341 9.60641 35.8341 10.394V15.5924H34.4984L34.4983 7.03529ZM30.6247 18.4448H54.3755V30.0444H51.7861V20.6949C51.7861 19.9073 51.1475 19.2687 50.3599 19.2687C49.5723 19.2687 48.9337 19.9073 48.9337 20.6949V30.0444H46.5461V20.6949C46.5461 19.9073 45.9075 19.2687 45.1199 19.2687C44.3323 19.2687 43.6937 19.9073 43.6937 20.6949V30.0444H41.3063V20.6949C41.3063 19.9073 40.6677 19.2687 39.8801 19.2687C39.0925 19.2687 38.4539 19.9073 38.4539 20.6949V30.0444H36.0665V20.6949C36.0665 19.9073 35.4279 19.2687 34.6403 19.2687C33.8527 19.2687 33.2141 19.9073 33.2141 20.6949V30.0444H30.6247V18.4448ZM27.5727 82.1476V32.8968H57.4275V82.1476H27.5727Z" fill="#FFBA08"/>
</svg>
