<svg width="85" height="85" viewBox="0 0 85 85" fill="none" xmlns="http://www.w3.org/2000/svg">
<path d="M81.7033 78.3348H36.6049C39.0502 70.6885 40.4216 60.7971 40.4216 50.4554C40.4216 27.5194 26.2201 9.24098 25.6156 8.47426C25.0718 7.78453 24.2422 7.38214 23.3641 7.38214C22.4861 7.38214 21.6564 7.78453 21.1126 8.47426C20.5082 9.24098 6.3066 27.5197 6.3066 50.4554C6.3066 60.7971 7.67776 70.6885 10.1233 78.3348H2.86682C1.28359 78.3348 0 79.6184 0 81.2016C0 82.7849 1.28359 84.0685 2.86682 84.0685H81.7033C83.2865 84.0685 84.5701 82.7849 84.5701 81.2016C84.5701 79.6184 83.2863 78.3348 81.7033 78.3348ZM30.5499 78.3348H26.2309V20.1204C30.0786 27.1909 34.688 38.2145 34.688 50.4554C34.688 61.0747 33.1909 71.0929 30.5499 78.3348ZM12.0405 50.4554C12.0405 38.214 16.6503 27.1903 20.4976 20.1204V78.3348H16.1786C13.5376 71.0929 12.0405 61.0747 12.0405 50.4554Z" fill="#FFBA08"/>
<path d="M76.2585 23.0059C76.2585 15.6541 70.2776 9.67316 62.9258 9.67316C55.574 9.67316 49.5931 15.6541 49.5931 23.0059C49.5931 30.3576 55.574 36.3385 62.9258 36.3385C70.2776 36.3385 76.2585 30.3576 76.2585 23.0059ZM62.9258 30.6052C58.7356 30.6052 55.3265 27.196 55.3265 23.0059C55.3265 18.8157 58.7356 15.4065 62.9258 15.4065C67.116 15.4065 70.5252 18.8157 70.5252 23.0059C70.5252 27.196 67.116 30.6052 62.9258 30.6052Z" fill="#FFBA08"/>
<path d="M62.9258 9.04317C64.509 9.04317 65.7926 7.75959 65.7926 6.17636V3.79779C65.7926 2.21456 64.509 0.930969 62.9258 0.930969C61.3425 0.930969 60.059 2.21456 60.059 3.79779V6.17636C60.059 7.75959 61.3425 9.04317 62.9258 9.04317Z" fill="#FFBA08"/>
<path d="M60.059 39.8347V42.2133C60.059 43.7965 61.3425 45.0801 62.9258 45.0801C64.509 45.0801 65.7926 43.7965 65.7926 42.2133V39.8347C65.7926 38.2515 64.509 36.9679 62.9258 36.9679C61.3425 36.9682 60.059 38.2518 60.059 39.8347Z" fill="#FFBA08"/>
<path d="M76.8878 23.0059C76.8878 24.5891 78.1714 25.8727 79.7546 25.8727H82.1332C83.7164 25.8727 85 24.5891 85 23.0059C85 21.4226 83.7164 20.139 82.1332 20.139H79.7546C78.1717 20.139 76.8878 21.4229 76.8878 23.0059Z" fill="#FFBA08"/>
<path d="M43.7184 25.8727H46.0969C47.6802 25.8727 48.9638 24.5891 48.9638 23.0059C48.9638 21.4226 47.6802 20.139 46.0969 20.139H43.7184C42.1351 20.139 40.8516 21.4226 40.8516 23.0059C40.8516 24.5891 42.1351 25.8727 43.7184 25.8727Z" fill="#FFBA08"/>
<path d="M74.8254 13.9729C75.5592 13.9729 76.2928 13.693 76.8526 13.1332L78.5345 11.4513C79.6541 10.3317 79.6541 8.51635 78.5345 7.39704C77.4146 6.27773 75.5999 6.27773 74.4803 7.39704L72.7983 9.07901C71.6787 10.1986 71.6787 12.0139 72.7983 13.1332C73.3581 13.693 74.0916 13.9729 74.8254 13.9729Z" fill="#FFBA08"/>
<path d="M48.999 32.8784L47.317 34.5604C46.1974 35.68 46.1974 37.4953 47.317 38.6146C47.8768 39.1742 48.6103 39.4543 49.3441 39.4543C50.0779 39.4543 50.8114 39.1744 51.3712 38.6146L53.0532 36.9327C54.1728 35.8131 54.1728 33.9977 53.0532 32.8784C51.9336 31.7591 50.1188 31.7591 48.999 32.8784Z" fill="#FFBA08"/>
<path d="M74.4803 38.6146C75.0401 39.1742 75.7736 39.4543 76.5074 39.4543C77.2412 39.4543 77.9747 39.1744 78.5345 38.6146C79.6541 37.495 79.6541 35.6797 78.5345 34.5604L76.8526 32.8784C75.7327 31.7591 73.9179 31.7591 72.7983 32.8784C71.6787 33.998 71.6787 35.8134 72.7983 36.9327L74.4803 38.6146Z" fill="#FFBA08"/>
<path d="M48.999 13.1335C49.5588 13.693 50.2923 13.9732 51.0261 13.9732C51.7599 13.9732 52.4934 13.6933 53.0532 13.1335C54.1728 12.0139 54.1728 10.1986 53.0532 9.07925L51.3712 7.39728C50.2514 6.27797 48.4366 6.27797 47.317 7.39728C46.1974 8.51688 46.1974 10.3322 47.317 11.4515L48.999 13.1335Z" fill="#FFBA08"/>
</svg>
